<svg xmlns="http://www.w3.org/2000/svg" xmlns:xlink="http://www.w3.org/1999/xlink" width="1366" height="900" viewBox="0 0 1366 900">
  <defs>
    <clipPath id="clip-path">
      <rect id="Rectangle_1316" data-name="Rectangle 1316" width="106" height="105" transform="translate(140 2860.5)" fill="#fff" stroke="#707070" stroke-width="1"/>
    </clipPath>
    <clipPath id="clip-path-2">
      <path id="Path_37514" data-name="Path 37514" d="M64.28,62.47,54.209,68.283a1.216,1.216,0,0,0-.609,1.053V80.97a1.215,1.215,0,0,0,.609,1.053L64.281,87.84a1.219,1.219,0,0,0,1.217,0l10.07-5.817a1.218,1.218,0,0,0,.607-1.053V69.336a1.215,1.215,0,0,0-.61-1.053L65.5,62.47a1.224,1.224,0,0,0-1.219,0" transform="translate(-53.6 -62.307)" fill="#fff"/>
    </clipPath>
    <clipPath id="clip-path-3">
      <path id="Path_37516" data-name="Path 37516" d="M53.888,81.713a1.219,1.219,0,0,0,.359.315l8.639,4.99,1.439.827a1.221,1.221,0,0,0,.7.159,1.243,1.243,0,0,0,.239-.044L75.887,68.512a1.2,1.2,0,0,0-.283-.225L69.01,64.479l-3.486-2.006a1.271,1.271,0,0,0-.316-.127Zm0,0" transform="translate(-53.888 -62.347)" fill="#fff"/>
    </clipPath>
    <clipPath id="clip-path-4">
      <path id="Path_37518" data-name="Path 37518" d="M64.865,62.314a1.229,1.229,0,0,0-.486.156l-10.042,5.8L65.164,87.99a1.207,1.207,0,0,0,.433-.149l10.071-5.817a1.22,1.22,0,0,0,.588-.831L65.217,62.334a1.265,1.265,0,0,0-.246-.024c-.033,0-.067,0-.1,0" transform="translate(-54.336 -62.31)" fill="#fff"/>
    </clipPath>
    <linearGradient id="linear-gradient" x1="0.301" y1="1.397" x2="0.699" y2="-0.277" gradientUnits="objectBoundingBox">
      <stop offset="0" stop-color="#daccd2"/>
      <stop offset="0.998" stop-color="#b0339f"/>
    </linearGradient>
    <linearGradient id="linear-gradient-2" x1="0.699" y1="1.397" x2="0.301" y2="-0.277" xlink:href="#linear-gradient"/>
    <clipPath id="clip-Home_Page">
      <rect width="1366" height="900"/>
    </clipPath>
  </defs>
  <g id="Home_Page" clip-path="url(#clip-Home_Page)">
    <rect width="1366" height="900"/>
    <g id="Group_35709" data-name="Group 35709" transform="translate(0 115.28)">
      <path id="Path_37727" data-name="Path 37727" d="M43.13,604.44,746.772,379.47,1409.13,603.319V491.955L746.772,295.34,43.13,509.155Z" transform="translate(-43.13 209.337)" fill="#baff2e"/>
      <path id="Path_37728" data-name="Path 37728" d="M43.13,530.488,746.772,311.563,1409.13,511.086V457.305L746.772,260.69,43.13,474.526Z" transform="translate(-43.13 172.009)" fill="#baff2e"/>
    </g>
    <g id="Home_Page-2" data-name="Home_Page" transform="translate(267 120)">
      <g id="TEXT" transform="translate(-633 -152.33)">
        <text id="Karim_Aldeen" data-name="Karim Aldeen" transform="translate(633 325.33)" fill="#fff" font-size="140" font-family="TrebuchetMS-Bold, Trebuchet MS" font-weight="700"><tspan x="0" y="0">Kar</tspan><tspan y="0" font-size="106">I</tspan><tspan y="0">m Aldeen</tspan></text>
        <text id="welcome_im" data-name="welcome im" transform="translate(633 208.33)" fill="#baff2e" font-size="60" font-family="TrebuchetMS-Bold, Trebuchet MS" font-weight="700"><tspan x="0" y="0">Welcome Im</tspan></text>
        <text id="Front-end_Designer" data-name="Front-end &amp; Designer" transform="translate(902 517.33)" fill="#fff" font-size="34" font-family="SegoeUI, Segoe UI" letter-spacing="0.01em"><tspan x="0" y="0">Front-End &amp; Designer</tspan></text>
        <text id="MY_WORK" data-name="MY WORK" transform="translate(726 456.33)" fill="#fff" font-size="107" font-family="TrebuchetMS-Bold, Trebuchet MS" font-weight="700"><tspan x="0" y="0">SEE MY </tspan><tspan y="0" fill="#baff2e">WORK</tspan></text>
        <circle id="Ellipse_245" data-name="Ellipse 245" cx="6.5" cy="6.5" r="6.5" transform="translate(862 229.33)" fill="#fff"/>
      </g>
    </g>
    <g id="Group_35721" data-name="Group 35721" opacity="0.81">
      <g id="Mask_Group_3" data-name="Mask Group 3" transform="translate(74 -2510.5)" opacity="0.13" clip-path="url(#clip-path)">
        <g id="Node.js_logo" transform="translate(140 2880.491)">
          <path id="Path_37509" data-name="Path 37509" d="M58.523,70.713a2.01,2.01,0,0,1-1-.268l-3.188-1.887c-.476-.266-.244-.36-.087-.415a6.436,6.436,0,0,0,1.441-.657.242.242,0,0,1,.237.017l2.449,1.453a.323.323,0,0,0,.3,0l9.55-5.512a.3.3,0,0,0,.146-.258V52.165a.307.307,0,0,0-.148-.263l-9.546-5.508a.294.294,0,0,0-.294,0L48.834,51.9a.3.3,0,0,0-.151.261v11.02a.294.294,0,0,0,.148.256l2.615,1.511c1.42.71,2.288-.127,2.288-.968V53.1a.272.272,0,0,1,.277-.275h1.21a.273.273,0,0,1,.275.275V63.986a2.648,2.648,0,0,1-2.828,2.981,4.094,4.094,0,0,1-2.2-.6l-2.505-1.444a2.019,2.019,0,0,1-1-1.743V52.163a2.007,2.007,0,0,1,1-1.74l9.559-5.515a2.094,2.094,0,0,1,2.008,0l9.547,5.517a2.015,2.015,0,0,1,1,1.74v11.02a2.02,2.02,0,0,1-1,1.74L59.528,70.44a2.007,2.007,0,0,1-1.006.268" transform="translate(-6.257 -5.949)" fill="#fff"/>
          <path id="Path_37510" data-name="Path 37510" d="M62.926,63.9c-4.178,0-5.055-1.918-5.055-3.527a.275.275,0,0,1,.277-.275h1.233a.276.276,0,0,1,.272.234c.186,1.257.741,1.891,3.268,1.891,2.013,0,2.869-.455,2.869-1.522,0-.614-.244-1.071-3.37-1.377-2.615-.258-4.231-.834-4.231-2.926,0-1.927,1.625-3.074,4.348-3.074,3.057,0,4.573,1.061,4.764,3.342a.278.278,0,0,1-.074.213.284.284,0,0,1-.2.088H65.783a.274.274,0,0,1-.268-.215c-.3-1.322-1.021-1.745-2.983-1.745-2.2,0-2.453.765-2.453,1.339,0,.7.3.9,3.265,1.291,2.935.39,4.329.939,4.329,3,0,2.08-1.735,3.272-4.762,3.272M74.544,52.225h.32a.278.278,0,0,0,.313-.292c0-.282-.194-.282-.3-.282h-.33Zm-.39-.9h.71c.244,0,.722,0,.722.545a.474.474,0,0,1-.39.507c.284.019.3.206.342.469a2.015,2.015,0,0,0,.108.545h-.437c-.012-.1-.079-.622-.079-.65-.029-.117-.069-.174-.215-.174h-.361v.827h-.4ZM73.3,52.349a1.543,1.543,0,1,0,1.537-1.539A1.545,1.545,0,0,0,73.3,52.349m3.385.007a1.841,1.841,0,1,1-1.841-1.841,1.846,1.846,0,0,1,1.841,1.841" transform="translate(-7.711 -6.73)" fill="#fff"/>
          <path id="Path_37511" data-name="Path 37511" d="M22.694,21.645a1.223,1.223,0,0,0-.611-1.063L11.957,14.757a1.182,1.182,0,0,0-.556-.16h-.1a1.2,1.2,0,0,0-.559.16L.612,20.583A1.232,1.232,0,0,0,0,21.646L.022,37.337a.6.6,0,0,0,.3.528.579.579,0,0,0,.607,0l6.019-3.447a1.234,1.234,0,0,0,.612-1.061v-7.33a1.219,1.219,0,0,1,.611-1.059l2.563-1.476a1.216,1.216,0,0,1,.612-.164,1.194,1.194,0,0,1,.608.164l2.561,1.475a1.22,1.22,0,0,1,.612,1.059v7.33a1.239,1.239,0,0,0,.613,1.061l6.015,3.445a.6.6,0,0,0,.612,0,.614.614,0,0,0,.3-.528Zm47.777,8.17a.3.3,0,0,1-.153.264l-3.478,2a.307.307,0,0,1-.305,0l-3.478-2a.3.3,0,0,1-.153-.264V25.8a.308.308,0,0,1,.151-.265l3.476-2.008a.309.309,0,0,1,.308,0l3.478,2.008a.3.3,0,0,1,.153.265ZM71.41.077a.611.611,0,0,0-.91.535V16.15a.428.428,0,0,1-.642.371L67.322,15.06a1.221,1.221,0,0,0-1.222,0L55.972,20.9a1.22,1.22,0,0,0-.612,1.057V33.656a1.224,1.224,0,0,0,.612,1.059L66.1,40.564a1.228,1.228,0,0,0,1.223,0l10.128-5.852a1.226,1.226,0,0,0,.612-1.059V4.509a1.226,1.226,0,0,0-.629-1.069Zm33.727,25.617a1.223,1.223,0,0,0,.608-1.057V21.8a1.224,1.224,0,0,0-.609-1.058L95.073,14.9a1.222,1.222,0,0,0-1.226,0L83.721,20.748a1.221,1.221,0,0,0-.612,1.059V33.5a1.227,1.227,0,0,0,.617,1.064l10.061,5.735a1.22,1.22,0,0,0,1.2.007l6.086-3.382a.611.611,0,0,0,0-1.064L90.889,30.008a.607.607,0,0,1-.308-.528V25.813a.607.607,0,0,1,.306-.53l3.17-1.829a.6.6,0,0,1,.61,0l3.172,1.829a.609.609,0,0,1,.306.528v2.883a.61.61,0,0,0,.918.528Zm0,0" transform="translate(0 0)" fill="#fff" fill-rule="evenodd"/>
          <path id="Path_37512" data-name="Path 37512" d="M108.492,29.008a.232.232,0,0,1,.234,0l1.943,1.121a.235.235,0,0,1,.117.2v2.245a.235.235,0,0,1-.117.2L108.726,33.9a.232.232,0,0,1-.234,0l-1.942-1.121a.234.234,0,0,1-.12-.2V30.332a.232.232,0,0,1,.117-.2Zm0,0" transform="translate(-14.18 -3.861)" fill="#fff" fill-rule="evenodd"/>
          <g id="Group_35643" data-name="Group 35643" transform="translate(27.74 14.799)" clip-path="url(#clip-path-2)">
            <path id="Path_37513" data-name="Path 37513" d="M84.787,65.924,56.409,52.014,41.858,81.7,70.236,95.608Zm0,0" transform="translate(-52.036 -60.936)" fill="#fff"/>
          </g>
          <g id="Group_35644" data-name="Group 35644" transform="translate(27.99 14.833)" clip-path="url(#clip-path-3)">
            <path id="Path_37515" data-name="Path 37515" d="M39.733,69.8,59.77,96.919l26.5-19.579L66.232,50.221Zm0,0" transform="translate(-52.002 -60.731)" fill="#fff"/>
          </g>
          <g id="Group_35645" data-name="Group 35645" transform="translate(28.378 14.801)" clip-path="url(#clip-path-4)">
            <path id="Path_37517" data-name="Path 37517" d="M54.336,62.31V87.99H76.252V62.31Zm0,0" transform="translate(-54.336 -62.31)" fill="#fff"/>
          </g>
        </g>
      </g>
      <g id="React-icon" transform="translate(140 245.714)" opacity="0.1">
        <path id="Path_46" data-name="Path 46" d="M267.7,118.974c0-6.095-7.632-11.87-19.334-15.452,2.7-11.927,1.5-21.415-3.788-24.453a8.222,8.222,0,0,0-4.2-1.05V82.2a4.342,4.342,0,0,1,2.138.488c2.55,1.463,3.657,7.032,2.794,14.2-.206,1.763-.544,3.619-.956,5.513a90.876,90.876,0,0,0-11.908-2.044,91.477,91.477,0,0,0-7.8-9.376c6.113-5.682,11.852-8.795,15.752-8.795V78h0c-5.157,0-11.908,3.675-18.734,10.051-6.826-6.338-13.577-9.976-18.734-9.976v4.182c3.882,0,9.639,3.094,15.752,8.739a88.569,88.569,0,0,0-7.745,9.358,87.567,87.567,0,0,0-11.927,2.063c-.431-1.875-.75-3.694-.975-5.438-.881-7.163.206-12.733,2.738-14.214a4.173,4.173,0,0,1,2.157-.488V78.094h0a8.362,8.362,0,0,0-4.238,1.05c-5.269,3.038-6.451,12.508-3.732,24.4-11.664,3.6-19.259,9.358-19.259,15.433,0,6.095,7.632,11.87,19.334,15.452-2.7,11.927-1.5,21.415,3.788,24.453a8.243,8.243,0,0,0,4.219,1.05c5.157,0,11.908-3.676,18.734-10.051,6.826,6.338,13.577,9.976,18.734,9.976a8.361,8.361,0,0,0,4.238-1.05c5.269-3.038,6.451-12.508,3.732-24.4C260.105,130.826,267.7,125.05,267.7,118.974Zm-24.416-12.508c-.694,2.419-1.556,4.913-2.532,7.407-.769-1.5-1.575-3-2.457-4.5-.863-1.5-1.782-2.963-2.7-4.388C238.259,105.379,240.828,105.866,243.284,106.466ZM234.7,126.438c-1.463,2.532-2.963,4.932-4.519,7.163-2.794.244-5.626.375-8.476.375-2.832,0-5.663-.131-8.439-.356q-2.335-3.347-4.538-7.126-2.138-3.685-3.9-7.464c1.163-2.513,2.475-5.026,3.882-7.482,1.463-2.532,2.963-4.932,4.519-7.163,2.794-.244,5.626-.375,8.476-.375,2.832,0,5.663.131,8.439.356q2.335,3.347,4.538,7.126,2.138,3.685,3.9,7.464C237.4,121.468,236.1,123.981,234.7,126.438ZM240.753,124c1.013,2.513,1.875,5.026,2.588,7.464-2.457.6-5.044,1.106-7.726,1.5.919-1.444,1.838-2.925,2.7-4.444C239.177,127.019,239.984,125.5,240.753,124Zm-19.015,20.009a77.31,77.31,0,0,1-5.213-6c1.688.075,3.413.131,5.157.131,1.763,0,3.507-.038,5.213-.131A73.187,73.187,0,0,1,221.738,144.009Zm-13.952-11.045c-2.663-.394-5.232-.881-7.689-1.481.694-2.419,1.556-4.913,2.532-7.407.769,1.5,1.575,3,2.457,4.5S206.867,131.539,207.786,132.964ZM221.644,93.94a77.315,77.315,0,0,1,5.213,6c-1.688-.075-3.413-.131-5.157-.131-1.763,0-3.507.037-5.213.131A73.192,73.192,0,0,1,221.644,93.94Zm-13.877,11.045c-.919,1.444-1.838,2.925-2.7,4.444-.863,1.5-1.669,3-2.438,4.5-1.013-2.513-1.875-5.026-2.588-7.464C202.5,105.885,205.085,105.379,207.767,104.985ZM190.8,128.463c-6.638-2.832-10.933-6.545-10.933-9.489s4.294-6.676,10.933-9.489c1.613-.694,3.375-1.313,5.194-1.894a90.069,90.069,0,0,0,4.219,11.42,88.79,88.79,0,0,0-4.163,11.364C194.19,129.795,192.427,129.157,190.8,128.463Zm10.089,26.8c-2.55-1.463-3.657-7.032-2.794-14.2.206-1.763.544-3.619.956-5.513a90.879,90.879,0,0,0,11.908,2.044,91.481,91.481,0,0,0,7.8,9.376c-6.113,5.682-11.852,8.795-15.752,8.795A4.476,4.476,0,0,1,200.885,155.261Zm44.481-14.289c.881,7.163-.206,12.733-2.738,14.214a4.174,4.174,0,0,1-2.157.488c-3.882,0-9.639-3.094-15.752-8.739a88.578,88.578,0,0,0,7.745-9.357,87.57,87.57,0,0,0,11.927-2.063A52.5,52.5,0,0,1,245.366,140.971Zm7.22-12.508c-1.613.694-3.375,1.313-5.194,1.894a90.066,90.066,0,0,0-4.219-11.42,88.794,88.794,0,0,0,4.163-11.364c1.857.581,3.619,1.219,5.269,1.913,6.638,2.832,10.933,6.545,10.933,9.489C263.518,121.919,259.224,125.65,252.586,128.463Z" transform="translate(-175.7 -78)" fill="#fff"/>
        <path id="Path_47" data-name="Path 47" d="M320.8,78.4Z" transform="translate(-293.59 -78.325)" fill="#fff"/>
        <circle id="Ellipse_1" data-name="Ellipse 1" cx="8.57" cy="8.57" r="8.57" transform="translate(37.411 32.404)" fill="#fff"/>
        <path id="Path_48" data-name="Path 48" d="M520.5,78.1Z" transform="translate(-455.841 -78.081)" fill="#fff"/>
      </g>
      <g id="Group_35719" data-name="Group 35719" transform="translate(-772 1554)" opacity="0.1">
        <path id="Path_37753" data-name="Path 37753" d="M48,38l2.227,24.988h28.64l-.961,10.718L68.685,76.2l-9.2-2.49-.615-6.882H50.571l1.186,13.266,16.925,4.7,16.947-4.7L87.9,54.726H57.785l-.756-8.462H88.65L89.39,38Z" transform="translate(1840 -1208)" fill="#fff"/>
        <path id="Path_37754" data-name="Path 37754" d="M68.7,38H48l2.227,24.988H68.7V54.726H57.785l-.756-8.462H68.7Zm0,38.195-.011,0-9.2-2.49-.615-6.882H50.571l1.186,13.266,16.925,4.7.013,0v-8.6Z" transform="translate(1840 -1208)" fill="#ebebeb"/>
      </g>
      <g id="Group_35720" data-name="Group 35720" transform="translate(280 450.481)" opacity="0.1">
        <path id="Path_37744" data-name="Path 37744" d="M77.915,77.986A12,12,0,0,0,72.662,79.2a11.071,11.071,0,0,1-1.176-2.722,7.31,7.31,0,0,1-.106-2.287,20.329,20.329,0,0,1,.688-2.467c-.01-.106-.127-.6-1.292-.614s-2.171.222-2.287.53A12.745,12.745,0,0,0,68,73.368c-.2,1.059-2.33,4.84-3.548,6.82a6.6,6.6,0,0,1-.911-4.278,20.34,20.34,0,0,1,.688-2.468c-.01-.106-.127-.6-1.292-.614s-2.171.222-2.287.529-.244,1.027-.487,1.726-3.071,7.011-3.812,8.641q-.449.99-.942,1.959a.49.49,0,0,1-.042.085q-.155.3-.318.6v.011c-.159.286-.328.551-.413.551a3.545,3.545,0,0,1,.021-1.8c.424-2.192,1.43-5.6,1.419-5.719,0-.064.191-.657-.657-.964a1.052,1.052,0,0,0-1.2.2c-.074,0-.127.18-.127.18S55.019,75,52.34,75c-1.673,0-3.982,1.832-5.125,3.484q-1.95,1.061-3.9,2.128c-.625.35-1.271.7-1.875,1.028-.042-.042-.085-.1-.127-.138-3.241-3.463-9.234-5.909-8.98-10.558.1-1.695.678-6.142,11.511-11.543,8.917-4.395,16.012-3.177,17.241-.477,1.758,3.855-3.8,11.014-13.015,12.051-3.516.392-5.359-.964-5.824-1.472-.487-.53-.562-.561-.742-.455-.3.159-.106.635,0,.91a5.439,5.439,0,0,0,3.325,2.616c1.695.551,5.814.858,10.8-1.069,5.581-2.16,9.944-8.165,8.663-13.2-1.281-5.1-9.753-6.788-17.77-3.94a40.382,40.382,0,0,0-13.651,7.837c-4.416,4.13-5.115,7.72-4.829,9.224,1.027,5.337,8.387,8.811,11.331,11.384-.148.085-.286.159-.4.222-1.472.731-7.085,3.664-8.483,6.767-1.588,3.516.254,6.036,1.472,6.375a9.057,9.057,0,0,0,9.754-3.95,9.783,9.783,0,0,0,.868-9.012.221.221,0,0,0-.042-.064c.381-.222.773-.455,1.154-.678q1.051-.621,2.128-1.2a13.961,13.961,0,0,0-.752,3.855A8.049,8.049,0,0,0,46.8,90.725a1.908,1.908,0,0,0,1.4.455c1.25,0,1.811-1.038,2.436-2.266.762-1.5,1.451-3.251,1.451-3.251s-.858,4.723,1.472,4.723c.847,0,1.7-1.1,2.086-1.663v.01s.021-.032.064-.106l.137-.222v-.021c.339-.593,1.1-1.938,2.235-4.173,1.461-2.88,2.87-6.481,2.87-6.481a18.4,18.4,0,0,0,.561,2.34,22.037,22.037,0,0,0,1.207,2.711c-.339.477-.551.741-.551.741l.01.011c-.275.36-.572.752-.9,1.133a33.744,33.744,0,0,0-2.722,3.41.926.926,0,0,0,.254,1.25,2.312,2.312,0,0,0,1.419.233,6.517,6.517,0,0,0,2.129-.487,7.133,7.133,0,0,0,1.832-.964A4.1,4.1,0,0,0,65.948,84.5a7.3,7.3,0,0,0-.667-2.552c.106-.148.2-.3.307-.445a48.473,48.473,0,0,0,3.177-5.486,18.405,18.405,0,0,0,.561,2.34,15.664,15.664,0,0,0,1.027,2.33,10.067,10.067,0,0,0-3.092,3.992c-.667,1.927-.148,2.8.837,3a2.95,2.95,0,0,0,1.546-.318A7.039,7.039,0,0,0,71.6,86.351a4.4,4.4,0,0,0,2.16-3.579,6.77,6.77,0,0,0-.487-2.118,11.094,11.094,0,0,1,5.623-.646c5.041.593,6.036,3.738,5.846,5.062a3.35,3.35,0,0,1-1.6,2.266c-.349.222-.466.3-.434.455.042.233.212.222.508.18a3.937,3.937,0,0,0,2.743-3.505c.159-3.114-2.806-6.513-8.048-6.481ZM39.028,91.1c-1.673,1.821-4,2.51-5.009,1.927-1.08-.625-.657-3.315,1.4-5.242a26.676,26.676,0,0,1,3.929-2.933c.244-.148.6-.36,1.038-.625.074-.042.117-.064.117-.064L40.754,84a7.234,7.234,0,0,1-1.726,7.1Zm12.178-8.282c-.582,1.419-1.8,5.051-2.542,4.85-.635-.17-1.027-2.923-.127-5.645a12.825,12.825,0,0,1,1.98-3.632c.911-1.017,1.917-1.355,2.16-.942C52.986,77.986,51.567,81.925,51.207,82.814Zm10.05,4.808c-.244.127-.477.212-.582.148-.074-.042.106-.212.106-.212s1.26-1.356,1.758-1.97c.286-.36.625-.784.985-1.26v.138c0,1.62-1.567,2.711-2.266,3.156Zm7.752-1.769c-.18-.127-.148-.551.455-1.874a7.059,7.059,0,0,1,1.726-2.224,3,3,0,0,1,.169.974,3.2,3.2,0,0,1-2.351,3.124Z" transform="translate(0.007 0.007)" fill="#fff"/>
      </g>
      <g id="redux-logo" transform="translate(1017.508 459.753)" opacity="0.1">
        <path id="Path_52" data-name="Path 52" d="M41.729,57.772a3.154,3.154,0,0,0-.337-6.29H41.28a3.142,3.142,0,0,0-3.033,3.257,3.225,3.225,0,0,0,.9,2.078c-1.909,3.763-4.83,6.514-9.21,8.817a15.187,15.187,0,0,1-9.154,1.741,7.807,7.807,0,0,1-5.728-3.313,8.249,8.249,0,0,1-.449-8.7,13.219,13.219,0,0,1,3.819-4.493c-.225-.73-.562-1.966-.73-2.864-8.143,5.9-7.3,13.871-4.83,17.634,1.853,2.808,5.616,4.549,9.772,4.549A13.806,13.806,0,0,0,26,69.79,21.551,21.551,0,0,0,41.729,57.772Z" transform="translate(0 -15.213)" fill="#fff"/>
        <path id="Path_53" data-name="Path 53" d="M64.04,45.635a22.806,22.806,0,0,0-17.746-7.75h-.9A3.086,3.086,0,0,0,42.644,36.2h-.112a3.146,3.146,0,0,0,.112,6.29h.112a3.163,3.163,0,0,0,2.752-1.909h1.011a21.4,21.4,0,0,1,11.962,3.65,15.044,15.044,0,0,1,5.953,7.188,7.784,7.784,0,0,1-.112,6.627,8.245,8.245,0,0,1-7.694,4.605,14.363,14.363,0,0,1-5.5-1.179c-.618.562-1.741,1.46-2.527,2.022a17.336,17.336,0,0,0,7.245,1.741c5.391,0,9.379-2.976,10.895-5.953,1.629-3.257,1.516-8.873-2.7-13.647Z" transform="translate(-12.427 -10.04)" fill="#fff"/>
        <path id="Path_54" data-name="Path 54" d="M29.966,43.514a3.155,3.155,0,0,0,3.145,3.033h.112a3.146,3.146,0,0,0-.112-6.29H33a.956.956,0,0,0-.393.056,20.577,20.577,0,0,1-2.92-12.467A15.065,15.065,0,0,1,33,19.141c1.629-2.078,4.774-3.089,6.908-3.145,5.953-.112,8.48,7.3,8.649,10.277.73.168,1.966.562,2.808.842-.674-9.1-6.29-13.815-11.681-13.815-5.054,0-9.716,3.65-11.569,9.042-2.583,7.188-.9,14.1,2.246,19.543a2.523,2.523,0,0,0-.393,1.629Z" transform="translate(-6.882)" fill="#fff"/>
      </g>
      <path id="Path_37748" data-name="Path 37748" d="M60.06,18a4.208,4.208,0,0,0-1.37.253A3.969,3.969,0,0,1,60.323,20.6c.018.126.053.216.07.342a2.027,2.027,0,0,1,.035.325c.07,1.587-.4,1.785-.738,2.723a3.942,3.942,0,0,0,.246,3.552,2.187,2.187,0,0,0,.211.4c-.668-4.562,3.04-5.247,3.725-6.671a3.328,3.328,0,0,0-1.74-2.651A3.808,3.808,0,0,0,60.06,18Zm5.587,1.028a2.123,2.123,0,0,0-.035.523c-.018.144-.018.325-.035.469a3.974,3.974,0,0,1-.123.433,4.167,4.167,0,0,1-.14.432c-.07.144-.123.271-.193.415-.052.072-.088.144-.14.217l-.106.162c-.088.126-.176.253-.264.36a2.691,2.691,0,0,1-.316.325v.018c-.106.09-.211.2-.334.288-.369.289-.791.5-1.177.775a2.639,2.639,0,0,0-.352.27A2.6,2.6,0,0,0,62.1,24a2.851,2.851,0,0,0-.316.343,2.671,2.671,0,0,0-.264.36c-.088.126-.176.253-.246.379-.07.144-.123.271-.193.415a3.908,3.908,0,0,0-.14.415c-.053.162-.088.307-.123.451-.018.072-.018.162-.035.235s-.017.144-.035.216c0,.144-.017.307-.017.451a2.033,2.033,0,0,0,.017.325,2.1,2.1,0,0,0,.053.451,3.833,3.833,0,0,0,.088.433c.053.144.088.288.141.433.035.09.088.18.123.252l-4.041-1.6q-1.012-.3-2.038-.541l-1.107-.271a31.832,31.832,0,0,0-3.2-.487c-.035,0-.052-.018-.088-.018a30.62,30.62,0,0,0-3.145-.162c-.773,0-1.546.036-2.3.09-1.072.072-2.144.216-3.215.4-.264.036-.527.09-.791.144-.545.108-1.072.234-1.581.36l-.79.217c-.264.108-.51.235-.755.343l-.58.27c-.035.018-.07.018-.088.036-.176.09-.334.162-.492.253a.843.843,0,0,0-.123.054c-.193.09-.386.2-.544.289-.123.054-.246.126-.352.18a1.624,1.624,0,0,1-.158.09c-.158.09-.316.18-.457.271a4.452,4.452,0,0,0-.422.27c-.123.09-.246.162-.351.253-.018.018-.035.018-.053.036a4.048,4.048,0,0,0-.334.253l-.035.036-.264.216c-.035.018-.07.054-.105.072-.088.072-.176.162-.264.235-.018.036-.053.054-.07.072-.106.108-.211.2-.316.307-.018,0-.018.018-.035.036-.106.09-.211.2-.316.307-.018.018-.018.036-.035.036-.088.09-.175.18-.263.289-.035.036-.088.072-.123.108-.088.108-.193.217-.3.325-.018.036-.053.054-.07.09-.14.144-.264.289-.4.433l-.053.054a10.458,10.458,0,0,1-.9.884,10.018,10.018,0,0,1-.984.793q-.511.367-1.054.685a10.594,10.594,0,0,1-1.107.541q-.56.244-1.142.433a19.25,19.25,0,0,1-2.143.523,3.579,3.579,0,0,0-.439.054c-.158.036-.3.072-.439.108l-.422.162a4.409,4.409,0,0,0-.422.2c-.123.09-.264.162-.387.252a2.886,2.886,0,0,0-.351.307,3,3,0,0,0-.352.324c-.106.126-.211.235-.3.361-.088.144-.193.271-.264.415a3.2,3.2,0,0,0-.246.415c-.07.162-.141.307-.193.469-.053.144-.106.307-.158.469a3.685,3.685,0,0,0-.088.433c0,.018-.018.036-.018.054-.035.162-.035.379-.053.487a2.492,2.492,0,0,0-.035.361,1.049,1.049,0,0,0,.018.235,1.916,1.916,0,0,0,.07.342,2.416,2.416,0,0,0,.123.325v.018a3.158,3.158,0,0,0,.193.325,3.693,3.693,0,0,0,.229.324c.088.09.193.2.3.289a2.58,2.58,0,0,0,.334.289,4.1,4.1,0,0,0,1.072.793c.088.054.176.09.281.144.018,0,.035.018.053.018a.167.167,0,0,0,.017.09,3.818,3.818,0,0,0,.088.433,2.467,2.467,0,0,0,.141.433c.053.108.088.216.141.325a.385.385,0,0,0,.052.09c.07.144.141.27.211.4l.264.379c.088.108.193.234.3.342s.211.2.334.307a.061.061,0,0,0,.035.018,3.934,3.934,0,0,0,.316.253,2.8,2.8,0,0,0,.387.234,2.854,2.854,0,0,0,.4.2,2.021,2.021,0,0,0,.352.126c.017.018.035.018.07.036.07.018.158.036.229.054a7.355,7.355,0,0,0,.07,2.218c.158.361.931-.739,1.7-2a11.28,11.28,0,0,0,0,3.137c.193.451,1.247-.956,2.161-2.506C42.4,45.929,53.77,54.764,54.965,67.241a3.45,3.45,0,0,0-3.637-2.759,9.4,9.4,0,0,1-2.864,4.111,11.849,11.849,0,0,0-.175-3.606,11.783,11.783,0,0,1-2.179,4.543,4.857,4.857,0,0,1-4.217-1.947c-.07-.054-.088-.162-.14-.234a3.3,3.3,0,0,1-.141-.379,1.528,1.528,0,0,1-.105-.379,2.842,2.842,0,0,1-.018-.4v-.27a2.965,2.965,0,0,1,.088-.379,3.087,3.087,0,0,1,.123-.379,4.091,4.091,0,0,1,.211-.379c.3-.865.3-1.569-.246-1.983a1.986,1.986,0,0,0-.334-.18c-.07-.018-.158-.054-.229-.072-.053-.018-.088-.036-.14-.054a2.766,2.766,0,0,0-.369-.09,1.306,1.306,0,0,0-.369-.054,2.8,2.8,0,0,0-.387-.036c-.088,0-.176.018-.264.018a1.338,1.338,0,0,0-.386.054,2.663,2.663,0,0,0-.369.072,2.977,2.977,0,0,0-.369.126c-.123.054-.228.108-.351.162-.106.054-.211.126-.334.18-4.094,2.741-1.651,9.159,1.142,11.017a8.6,8.6,0,0,0-2.425.667l-.035.036a16.353,16.353,0,0,0,2.372,1.208q1.412.47,2.846.865v.018a16.573,16.573,0,0,0,4.428.325A16.9,16.9,0,0,0,61.413,62.427c.035.162.07.307.105.469.053.325.123.667.158,1.01v.018c.035.162.052.324.07.469v.072a4.516,4.516,0,0,1,.035.469c.018.2.035.4.035.595v.289c0,.09.018.2.018.288,0,.108-.018.217-.018.325v.253c0,.126-.017.234-.017.361a1.128,1.128,0,0,1-.018.234c0,.126-.018.253-.018.4a.507.507,0,0,0-.018.162c-.017.144-.035.271-.052.415a.51.51,0,0,1-.018.162c-.018.18-.053.342-.07.523v.036c-.035.162-.07.343-.106.5v.054l-.105.487c0,.018-.018.054-.018.072a4.906,4.906,0,0,1-.123.487v.054c-.053.18-.106.342-.141.5a.057.057,0,0,0-.017.036l-.158.541c-.07.18-.123.343-.193.523s-.123.361-.193.523c-.07.18-.141.343-.211.523h-.018c-.07.162-.141.343-.229.5a.894.894,0,0,1-.053.126c-.017.018-.017.036-.035.054a16.97,16.97,0,0,1-4.937,6.058c-.141.09-.281.2-.422.307-.035.036-.088.054-.123.09-.123.09-.246.18-.387.27l.052.108h.018l.738-.108h.017c.457-.072.914-.162,1.371-.252a3.006,3.006,0,0,0,.387-.09c.088-.018.158-.036.246-.054.123-.018.246-.054.369-.072.105-.036.211-.054.316-.09a32.681,32.681,0,0,0,5.1-1.731,28.3,28.3,0,0,1-10.911,9.141A27.545,27.545,0,0,0,74.432,72.867,29.19,29.19,0,0,1,69.706,84.46a27.825,27.825,0,0,0,4.691-4,28.872,28.872,0,0,0,7.4-15.326,29.441,29.441,0,0,1,.51,8.69c12.686-18.156,1.054-36.98-3.813-41.938a.193.193,0,0,1-.035-.09c-.018.018-.018.018-.018.036,0-.018,0-.018-.018-.036,0,.217-.018.433-.035.649q-.073.606-.176,1.208c-.088.4-.193.793-.3,1.19q-.187.585-.422,1.154t-.527,1.1c-.193.343-.4.7-.633,1.028s-.466.66-.72.974-.545.613-.826.9c-.176.162-.334.307-.51.451-.141.126-.264.235-.4.36a9.762,9.762,0,0,1-.984.7,12.01,12.01,0,0,1-1.037.613q-.548.264-1.107.5-.561.217-1.142.379t-1.177.27c-.4.072-.808.108-1.195.144-.281.018-.562.036-.843.036-.4,0-.808-.036-1.195-.072a11.54,11.54,0,0,1-2.372-.487H62.8c.387-.036.773-.072,1.16-.144s.789-.161,1.177-.271.768-.234,1.142-.379a10.366,10.366,0,0,0,1.107-.5c.369-.18.7-.378,1.054-.595.334-.234.668-.469.984-.721a14.566,14.566,0,0,0,1.722-1.695q.386-.474.738-.974c.035-.054.07-.126.106-.18q.264-.427.51-.866.29-.537.527-1.1t.422-1.154c.123-.379.211-.775.3-1.172.07-.415.141-.811.176-1.208.035-.415.07-.829.07-1.226,0-.288-.017-.577-.035-.865-.035-.415-.088-.811-.14-1.208q-.1-.61-.264-1.208c-.123-.379-.246-.775-.387-1.154s-.316-.757-.492-1.118c-.193-.36-.387-.721-.6-1.064s-.458-.668-.7-.992c-.264-.307-.527-.613-.808-.92-.141-.144-.3-.307-.457-.45q-1.179-.94-2.442-1.767a3.136,3.136,0,0,0-.352-.18,6.74,6.74,0,0,0-1.669-.757Z" transform="translate(1152.668 233.908)" fill="#fff" opacity="0.1"/>
      <g id="Group_35717" data-name="Group 35717" transform="translate(135.618 474.479)" opacity="0.1">
        <path id="Path_37749" data-name="Path 37749" d="M56.369,29.475a3.732,3.732,0,0,1,3.643,0q8.319,4.7,16.64,9.4a3.425,3.425,0,0,1,1.73,2.95V60.679a3.462,3.462,0,0,1-1.859,3.014q-8.292,4.675-16.581,9.354a3.626,3.626,0,0,1-3.683-.1q-2.486-1.441-4.975-2.877a2.928,2.928,0,0,1-.96-.691c.212-.285.59-.32.9-.445a11.622,11.622,0,0,0,1.963-.916.459.459,0,0,1,.511.031c1.417.813,2.822,1.649,4.244,2.454.3.175.61-.057.87-.2q8.137-4.6,16.28-9.187a.538.538,0,0,0,.3-.53q.006-9.33,0-18.661a.583.583,0,0,0-.348-.582q-8.263-4.654-16.523-9.313a.574.574,0,0,0-.649,0Q49.6,36.681,41.346,41.341A.577.577,0,0,0,41,41.92q0,9.33,0,18.662a.528.528,0,0,0,.3.524q2.2,1.25,4.412,2.492a3.41,3.41,0,0,0,2.759.369A2.093,2.093,0,0,0,49.822,62c.008-6.184,0-12.368.006-18.551a.465.465,0,0,1,.507-.475c.706,0,1.413-.01,2.12,0a.489.489,0,0,1,.461.565c0,6.223.008,12.446,0,18.668A4.734,4.734,0,0,1,50.7,66.484a6.817,6.817,0,0,1-6.093-.167c-1.616-.807-3.159-1.759-4.746-2.623A3.454,3.454,0,0,1,38,60.679V41.824a3.432,3.432,0,0,1,1.789-2.988q8.291-4.679,16.579-9.361Z" transform="translate(0 0)" fill="#f4f2ed"/>
        <path id="Path_37750" data-name="Path 37750" d="M118.275,89.122a13.079,13.079,0,0,1,7.16,1.1,5.415,5.415,0,0,1,2.64,4.686.507.507,0,0,1-.55.373c-.7,0-1.4.01-2.1,0a.54.54,0,0,1-.506-.524,3.2,3.2,0,0,0-1.528-2.208,9.061,9.061,0,0,0-4.192-.6,5.69,5.69,0,0,0-3,.747,1.9,1.9,0,0,0-.632,2.125c.225.534.841.706,1.345.865,2.905.76,5.984.684,8.833,1.684a4.159,4.159,0,0,1,2.738,2.435,5.2,5.2,0,0,1-.881,4.963,6.955,6.955,0,0,1-3.734,2.012,17.934,17.934,0,0,1-5.636.239,8.882,8.882,0,0,1-4.958-1.865,5.2,5.2,0,0,1-1.676-4.1.47.47,0,0,1,.515-.415c.7-.006,1.409-.008,2.113,0a.494.494,0,0,1,.5.488,3.2,3.2,0,0,0,1.191,2.247c1.432.924,3.228.86,4.867.886,1.358-.06,2.882-.078,3.99-.976a2.2,2.2,0,0,0,.6-2.105c-.171-.622-.822-.912-1.381-1.1-2.868-.907-5.981-.578-8.821-1.6a4.292,4.292,0,0,1-2.711-2.362,4.838,4.838,0,0,1,.966-5.034,7.8,7.8,0,0,1,4.842-1.946" transform="translate(-57.084 -46.587)" fill="#f4f2ed"/>
      </g>
      <path id="Path_37747" data-name="Path 37747" d="M67.43,70.41a1.1,1.1,0,0,0,.553-.952L68,63.082a1.1,1.1,0,0,1,.553-.952l3.456-1.985a1.1,1.1,0,0,1,1.65.955V72.692a1.1,1.1,0,0,1-.553.955L60.066,81.139a1.1,1.1,0,0,1-1.1,0L48.734,75.286a1.1,1.1,0,0,1-.555-.956V68.484a.01.01,0,0,1,.014-.008.008.008,0,0,0,.013-.008v-.007a.012.012,0,0,1,.007-.011l8.431-4.843a.009.009,0,0,0,0-.016.009.009,0,0,1-.009-.009l.016-5.73a1.1,1.1,0,0,0-1.653-.958L48.728,60.5a1.1,1.1,0,0,1-1.1,0l-6.286-3.619a1.1,1.1,0,0,0-1.651.954V68.2a1.1,1.1,0,0,1-1.648.957l-3.488-1.994A1.1,1.1,0,0,1,34,66.2l.031-18.1a1.1,1.1,0,0,1,1.65-.953L47.63,54.008a1.1,1.1,0,0,0,1.1,0l11.945-6.863a1.1,1.1,0,0,1,1.65.956V66.208a1.1,1.1,0,0,1-.552.955l-6.256,3.6a1.1,1.1,0,0,0,0,1.912l3.451,1.964a1.1,1.1,0,0,0,1.094,0l7.365-4.23Zm.724-16.242a1.1,1.1,0,0,0,1.668.944l3.305-1.983a1.1,1.1,0,0,0,.535-.944V48.143a1.1,1.1,0,0,0-1.668-.943l-3.305,1.983a1.1,1.1,0,0,0-.535.944v4.041Z" transform="translate(863.833 461.077)" fill="#fff" fill-rule="evenodd" opacity="0.1"/>
    </g>
    <g id="Group_277" data-name="Group 277" transform="translate(967.281 403.286)">
      <ellipse id="Ellipse_42" data-name="Ellipse 42" cx="57.798" cy="85.912" rx="57.798" ry="85.912" transform="translate(194.257 5.617)" fill="#baff2e"/>
      <path id="Path_362" data-name="Path 362" d="M191.115,177.442s24.01,2.607,39.952-.728S257.828,69.5,257.828,69.5L232.179,6.551S197.685-2.17,178.25,7.78C161.047,16.587,191.115,177.442,191.115,177.442Z" transform="translate(28.404 0)" fill="#baff2e" fill-rule="evenodd"/>
      <ellipse id="Ellipse_43" data-name="Ellipse 43" cx="57.798" cy="85.912" rx="57.798" ry="85.912" transform="translate(161.719 5.617)" fill="#baff2e"/>
      <path id="Path_363" data-name="Path 363" d="M254.552,32.919a108.015,108.015,0,0,1-6.425,21.134c-6.457,15.44-18.637,33.682-40.015,33.618-15.408-.028-25.338-8.5-31.732-18.725l-.032-.032c-9.714-15.532-11.237-35.08-11.237-35.08Z" transform="translate(8.589 75.729)" fill="#83214f" fill-rule="evenodd"/>
      <path id="Path_364" data-name="Path 364" d="M180.478,36.4S199.171,24.694,217.4,31.4V23.931S193.05,17.8,180.478,33.3Z" transform="translate(47.504 49.941)" fill="#54214f" fill-rule="evenodd"/>
      <path id="Path_365" data-name="Path 365" d="M254.552,32.919a108.015,108.015,0,0,1-6.425,21.134s-11.085-4.052-38.309,0c-27.228,4.08-33.438,14.893-33.438,14.893l-.032-.032c-9.714-15.532-11.237-35.08-11.237-35.08Z" transform="translate(8.589 75.729)" fill="#9a2463" fill-rule="evenodd" opacity="0.5" style="mix-blend-mode: multiply;isolation: isolate"/>
      <path id="Path_366" data-name="Path 366" d="M192.564,36.4s-13.9-11.71-27.457-5.005V23.931S183.214,17.8,192.564,33.3Z" transform="translate(8.579 49.941)" fill="#54214f" fill-rule="evenodd"/>
      <path id="Path_367" data-name="Path 367" d="M167.046,33.768l6.88,14.082H245.6l4.052-14.934Z" transform="translate(13.488 75.721)" fill="#fff" fill-rule="evenodd"/>
      <path id="Path_368" data-name="Path 368" d="M205.642,26.866s20.421-3.017,32.544,0c0,0-8.121-11.268-16.274-17.923,0,0-19.022-4.377-38.14-3.614C183.773,5.329,198.337,12.754,205.642,26.866Z" transform="translate(55.849 5.634)" fill="#fbf9fa" fill-rule="evenodd" opacity="0.5" style="mix-blend-mode: soft-light;isolation: isolate"/>
      <path id="Path_369" data-name="Path 369" d="M183.773,63.8s11.865,2.964,32.537,0c0,0,8.28-4.38,16.761-14.395,0,0-13.734-1.162-29.782-3.631C203.29,45.777,194.66,57.762,183.773,63.8Z" transform="translate(55.849 108.291)" fill-rule="evenodd" opacity="0.5" fill="url(#linear-gradient)" style="mix-blend-mode: multiply;isolation: isolate"/>
    </g>
    <g id="Group_36005" data-name="Group 36005" transform="translate(140 406.301)">
      <ellipse id="Ellipse_42-2" data-name="Ellipse 42" cx="57.798" cy="85.912" rx="57.798" ry="85.912" transform="translate(0 2.602)" fill="#baff2e"/>
      <path id="Path_362-2" data-name="Path 362" d="M239.649,177.442s-24.01,2.607-39.952-.728S172.936,69.5,172.936,69.5L198.584,6.551S233.078-2.17,252.514,7.78C269.717,16.587,239.649,177.442,239.649,177.442Z" transform="translate(-149.315 -3.015)" fill="#baff2e" fill-rule="evenodd"/>
      <ellipse id="Ellipse_43-2" data-name="Ellipse 43" cx="57.798" cy="85.912" rx="57.798" ry="85.912" transform="translate(32.537 2.602)" fill="#baff2e"/>
      <path id="Path_363-2" data-name="Path 363" d="M165.111,32.919a108.015,108.015,0,0,0,6.425,21.134c6.457,15.44,18.637,33.682,40.015,33.618,15.408-.028,25.338-8.5,31.732-18.725l.032-.032c9.714-15.532,11.237-35.08,11.237-35.08Z" transform="translate(-118.399 72.715)" fill="#83214f" fill-rule="evenodd"/>
      <path id="Path_364-2" data-name="Path 364" d="M217.4,36.4s-18.694-11.71-36.924-5.005V23.931S204.83,17.8,217.4,33.3Z" transform="translate(-135.532 46.926)" fill="#54214f" fill-rule="evenodd"/>
      <path id="Path_365-2" data-name="Path 365" d="M165.111,32.919a108.015,108.015,0,0,0,6.425,21.134s11.085-4.052,38.309,0c27.228,4.08,33.438,14.893,33.438,14.893l.032-.032c9.714-15.532,11.237-35.08,11.237-35.08Z" transform="translate(-118.399 72.715)" fill="#9a2463" fill-rule="evenodd" opacity="0.5" style="mix-blend-mode: multiply;isolation: isolate"/>
      <path id="Path_366-2" data-name="Path 366" d="M165.107,36.4s13.9-11.71,27.457-5.005V23.931S174.457,17.8,165.107,33.3Z" transform="translate(-56.397 46.926)" fill="#54214f" fill-rule="evenodd"/>
      <path id="Path_367-2" data-name="Path 367" d="M249.648,33.768l-6.88,14.082H171.1l-4.052-14.934Z" transform="translate(-120.329 72.706)" fill="#fff" fill-rule="evenodd"/>
      <path id="Path_368-2" data-name="Path 368" d="M216.317,26.866s-20.421-3.017-32.544,0c0,0,8.121-11.268,16.274-17.923,0,0,19.022-4.377,38.14-3.614C238.186,5.329,223.622,12.754,216.317,26.866Z" transform="translate(-167.955 2.619)" fill="#fbf9fa" fill-rule="evenodd" opacity="0.5" style="mix-blend-mode: soft-light;isolation: isolate"/>
      <path id="Path_369-2" data-name="Path 369" d="M233.071,63.8s-11.865,2.964-32.537,0c0,0-8.28-4.38-16.761-14.395,0,0,13.734-1.162,29.782-3.631C213.555,45.777,222.184,57.762,233.071,63.8Z" transform="translate(-162.84 105.276)" fill-rule="evenodd" opacity="0.5" fill="url(#linear-gradient-2)" style="mix-blend-mode: multiply;isolation: isolate"/>
    </g>
  </g>
</svg>
